<svg xmlns="http://www.w3.org/2000/svg" version="1.1" xmlns:xlink="http://www.w3.org/1999/xlink" xmlns:svgjs="http://svgjs.dev/svgjs" viewBox="0 0 9.346277449517359 9.339362710385455"><g transform="matrix(1,0,0,1,2.461737881780855,3.2964830066284967)"><g><path d=" M -0.7087242481684932 -1.131815044265902 Q -0.6827560284903604 -1.1448784116245978 -0.6576239123816876 -1.1317396620684117 Q -0.6324917962730146 -1.1186009125122256 -0.6254210949938881 -1.0896180695974707 Q -0.6187694143300262 -1.0684342280113464 -0.6294264615170899 -1.0508081863328327 Q -0.6400835087041535 -1.0331821446543192 -0.6606571095642184 -1.0223319396953914 Q -0.6838263130456406 -1.009675399487402 -0.7044833304965444 -0.9920249708797717 Q -0.7251403479474483 -0.9743745422721414 -0.7424837185309796 -0.951132178003369 Q -0.7747782706520377 -0.9078532928132415 -0.7865704450393118 -0.8636244038014189 Q -0.7983626194265859 -0.8193955147895963 -0.7910580209107104 -0.7765132009466859 Q -0.7837534223948349 -0.7336308871037753 -0.7585603389633703 -0.6954922118879887 Q -0.7333672555319057 -0.657353536672202 -0.6916912920154864 -0.6262550790741459 Q -0.6428021809673792 -0.5897741961225802 -0.5962706162326705 -0.5768876339999806 Q -0.5497390514979619 -0.5640010718773808 -0.507155761285802 -0.5709049399748292 Q -0.4645724710736421 -0.5778088080722776 -0.42783330395621066 -0.6027984779283891 Q -0.39109413683877925 -0.6277881477845006 -0.36178982102522644 -0.6670597287903572 Q -0.3456425449646974 -0.6886991713854211 -0.33350257308843934 -0.7133288502879903 Q -0.32136260121218135 -0.7379585291905596 -0.3168304105537592 -0.765769664511429 Q -0.31228602643077874 -0.7885808147003783 -0.29762167505944404 -0.8032166200713866 Q -0.2829573236881092 -0.8178524254423948 -0.26015836696371825 -0.8183080264513344 Q -0.22816090081234125 -0.8193860616508918 -0.21021144857396046 -0.7991297746184151 Q -0.1922619963355796 -0.7788734875859383 -0.19759564783085598 -0.75166039952657 Q -0.2027258857507792 -0.7230478033688463 -0.212359768328798 -0.6959242286325962 Q -0.22199365090681672 -0.668800653896346 -0.235132400463003 -0.6436685377876732 Q -0.24827115001918915 -0.6185364216790001 -0.2656145206027204 -0.5952940574102279 Q -0.308673923430798 -0.5375888771567243 -0.3656815710452645 -0.4996497401941521 Q -0.42268921865973097 -0.46171060323157986 -0.48895634302397517 -0.4481489577379904 Q -0.5552234673882194 -0.43458731224440095 -0.6266654444594102 -0.45171313812695135 Q -0.6981074215306011 -0.4688389640095018 -0.7694374360106264 -0.5220651702830977 Q -0.8311499204484012 -0.5681148094186808 -0.8673966224141467 -0.6282265935928875 Q -0.9036433243798923 -0.6883383777670943 -0.9127074219476653 -0.755616473275825 Q -0.9217715195154383 -0.8228945687845557 -0.903539112433004 -0.8916392364467126 Q -0.8853067053505697 -0.9603839041088695 -0.8386590189534856 -1.0228978493834984 Q -0.8123449394474382 -1.058162126205084 -0.7792123460958508 -1.0858430087379503 Q -0.7460797527442633 -1.1135238912708167 -0.7087242481684932 -1.131815044265902 M 0.15211454749403225 -1.2011870176877313 Q 0.17145646911479928 -1.2185620016594103 0.19550150234157343 -1.2179820213810153 Q 0.21954653556834758 -1.21740204110262 0.2369215195400266 -1.1980601194818532 Q 0.2536282348974103 -1.1794621179234233 0.25163606594238264 -1.155492736144691 Q 0.24964389698735495 -1.1315233543659586 0.23030197536658792 -1.1141483703942796 L -0.011472044893000397 -0.8969610707482916 Q -0.030813966513767457 -0.8795860867766125 -0.055527268354836956 -0.8809099871173448 Q -0.08024057019590644 -0.8822338874580772 -0.0976155541675855 -0.9015758090788442 L -0.48387481323029646 -1.3315616051097428 Q -0.5012497972019756 -1.3509035267305098 -0.4995539368300746 -1.375950962878727 Q -0.4978580764581737 -1.4009983990269441 -0.4770283147127322 -1.4197099202272139 Q -0.4591742332166395 -1.4357483669703024 -0.4337170113132328 -1.4350927352438654 Q -0.4082597894098262 -1.4344371035174284 -0.39088480543814713 -1.4150951818966613 L -0.030688022332954715 -1.0141222682969133 L -0.05841483014739389 -1.0120669998421479 L 0.15211454749403225 -1.2011870176877313 M 0.46982116187022827 -1.355560828367251 Q 0.48427798778551806 -1.3339506413144973 0.47821648392072 -1.3088407195524319 Q 0.47215498005592205 -1.2837307977903667 0.4513759540436588 -1.2698300036410495 Q 0.428103444909924 -1.2542611141938143 0.40424315131706307 -1.259353892380863 Q 0.3803828577242021 -1.2644466705679114 0.36592603180891226 -1.2860568576206652 L 0.04453967107669998 -1.7664679390241904 Q 0.030082845161410188 -1.788078126076944 0.0353131879857177 -1.8126320160730365 Q 0.04054353081002515 -1.8371859060691291 0.06381603994375995 -1.8527547955163644 Q 0.08376390491553265 -1.8660995578997088 0.10887094006912937 -1.8618408273616192 Q 0.13397797522272617 -1.8575820968235295 0.14843480113801596 -1.8359719097707758 L 0.46982116187022827 -1.355560828367251 M 0.4330442752525383 -2.0827872996570056 Q 0.4459020105392675 -2.0883261301559823 0.4631045909454554 -2.0875703343048166 Q 0.48030717135164336 -2.0868145384536505 0.49240201765746894 -2.078958668493012 L 0.8635414663212277 -1.83161172663692 L 0.8168297216544839 -1.8136670084672488 L 0.8983390888527767 -2.2538274599607173 Q 0.9051068422081676 -2.2861415051194496 0.9326591321083016 -2.2980104276172577 Q 0.9547009640284089 -2.3075055656155037 0.978876470380585 -2.299409585587373 Q 1.003051976732761 -2.2913136055592425 1.0137340069807883 -2.2665165446491216 L 1.2428042111884832 -1.7347573495765354 Q 1.2530906106865833 -1.7108786983297524 1.244401184533562 -1.6880808064725832 Q 1.2357117583805408 -1.6652829146154138 1.2099962878070825 -1.6542052536174596 Q 1.184280817233624 -1.6431275926195055 1.1612851100014911 -1.6522762236041957 Q 1.1382894027693582 -1.6614248545888857 1.128003003271258 -1.6853035058356687 L 0.941660920055672 -2.1178744572677726 L 0.9810395736751887 -2.1250383695448827 L 0.9167251655815539 -1.7587042912617323 Q 0.9128114168607101 -1.745041108215674 0.9035779324050652 -1.732352815784958 Q 0.8943444479494205 -1.719664523354242 0.8810910819127642 -1.7150441025186027 Q 0.8695473870392998 -1.7089824931062148 0.853983810584824 -1.7109887552889036 Q 0.8384202341303483 -1.7129950174715924 0.8258026089111118 -1.7195368470189658 L 0.5309058767356578 -1.921331092110937 L 0.5338160982363132 -1.9802932037659406 L 0.7340052576993418 -1.5155779141170138 Q 0.7442916571974421 -1.491699262870231 0.7365206407077586 -1.4692970017629885 Q 0.7287496242180751 -1.4468947406557462 0.7048709729712923 -1.4366083411576458 Q 0.6819107313878473 -1.4267175724094725 0.6602926386507212 -1.436459649519053 Q 0.638674545913595 -1.4462017266286336 0.6283881464154947 -1.4700803778754163 L 0.39931794220779987 -2.0018395729480027 Q 0.3894271734596265 -2.024799814531448 0.399296398732691 -2.0486503573451764 Q 0.4091656240057555 -2.072500900158905 0.4330442752525383 -2.0827872996570056 M 1.6060179305673459 -2.2980278903463685 L 1.481403425207033 -1.7602628626123173 Q 1.477805036185491 -1.7403367090334239 1.4653460163844652 -1.7274808611190449 Q 1.4528869965834392 -1.7146250132046656 1.4361446651211318 -1.7116763970536164 Q 1.4095539033868787 -1.7069933008137144 1.3941492239000706 -1.7195111221061243 Q 1.3787445444132624 -1.7320289433985343 1.3749286882177867 -1.7536954899968147 Q 1.3733676561378194 -1.7625590772415656 1.3745877051305506 -1.772927851540167 L 1.5160917095886104 -2.4050525360149417 Q 1.5205014936284618 -2.4261369806299147 1.534843475479434 -2.439832146075662 Q 1.5491854573304065 -2.4535273115214085 1.5682443708648734 -2.4548531376358396 Q 1.5859715453543757 -2.457975201795774 1.6030578163691864 -2.4503227941479526 Q 1.6201440873839972 -2.442670386500131 1.6303335007431792 -2.425172505045632 L 1.9742454186398017 -1.8907227012953949 Q 1.981424457891283 -1.878786981986292 1.9833323859890208 -1.8679537086871516 Q 1.9880154822289229 -1.8413629469528987 1.9735558973951823 -1.8225701183622938 Q 1.9590963125614418 -1.8037772897716888 1.9384146089903558 -1.8001348815850984 Q 1.920687434500854 -1.7970128174251636 1.904499282508795 -1.8053310945954675 Q 1.888311130516736 -1.8136493717657713 1.8771368741303598 -1.830973805211386 L 1.5784981708320152 -2.2870888399255285 L 1.6060179305673459 -2.2980278903463685 M 1.4907729019660627 -1.8857906002054963 L 1.5249927474399585 -2.0085871888215596 L 1.790900364782489 -2.0554181512205796 L 1.8295589033209905 -1.9454567152620255 L 1.4907729019660627 -1.8857906002054963 M 2.298955370984887 -1.803567298624706 Q 2.2709660513639083 -1.8043405949163684 2.25345622750414 -1.82233103872412 Q 2.235946403644371 -1.8403214825318719 2.236664464486629 -1.8663115650370663 L 2.2526827448139213 -2.4460903286144813 L 2.382633157339894 -2.442500024403192 L 2.3666148770126014 -1.8627212608257768 Q 2.3658968161703435 -1.8367311783205822 2.3469205626670506 -1.8197487814644617 Q 2.3279443091637577 -1.8027663846083415 2.298955370984887 -1.803567298624706 M 2.0941960386415377 -2.394447672150774 Q 2.0682059561363433 -2.395165732993032 2.0511545149684673 -2.4116429401015944 Q 2.034103073800591 -2.428120147210157 2.034821134642849 -2.4541102297153516 Q 2.035539195485107 -2.4801003122205456 2.0534605949811033 -2.4951110896855844 Q 2.0713819944770995 -2.5101218671506227 2.097372076982294 -2.509403806308365 L 2.541202716686384 -2.4971415365405756 Q 2.5671927991915786 -2.4964234756983177 2.5842442403594545 -2.4799462685897553 Q 2.6012956815273305 -2.4634690614811925 2.6005776206850726 -2.4374789789759985 Q 2.5998595598428147 -2.4114888964708037 2.5819381603468186 -2.3964781190057654 Q 2.564016760850822 -2.381467341540727 2.538026678345628 -2.3821854023829845 L 2.0941960386415377 -2.394447672150774 M 2.936104648173976 -2.439394027369336 L 3.2625186121753087 -2.3640353908043297 Q 3.287852233261979 -2.3581866608022697 3.301192014953623 -2.338172909918957 Q 3.314531796645267 -2.3181591590356447 3.3086830666432068 -2.2928255379489744 Q 3.303059287795072 -2.268466286904099 3.2825210691778155 -2.2573001964499704 Q 3.261982850560559 -2.246134105995842 3.2366492294738887 -2.251982835997902 L 2.963825617771282 -2.314969159097012 L 2.976419117764169 -2.3295088894221987 L 2.9325536427487173 -2.1395067312721694 L 2.9265582916457604 -2.1491013008379327 L 3.1545608814257955 -2.096462730819391 Q 3.1798945025124663 -2.0906140008173306 3.1932342842041104 -2.0706002499340186 Q 3.2065740658957544 -2.050586499050706 3.200725335893694 -2.0252528779640357 Q 3.195101557045559 -2.00089362691916 3.1745633384283027 -1.9897275364650315 Q 3.1540251198110463 -1.9785614460109031 3.1286914987243755 -1.9844101760129633 L 2.903612019069725 -2.036373892569729 L 2.9102834785101037 -2.0430440971344623 L 2.8648433454171744 -1.8462213486918675 L 2.8590729454681427 -1.8567902882994258 L 3.130922187128954 -1.7940289163542413 Q 3.156255808215625 -1.7881801863521811 3.1693706387533433 -1.7671920654270739 Q 3.182485469291062 -1.7462039445019666 3.177311592750778 -1.723793433540681 Q 3.171687813902643 -1.6994341824958055 3.1510371197084237 -1.6877809070207797 Q 3.1303864255142044 -1.6761276315457536 3.105052804427534 -1.6819763615478138 L 2.7786388404262015 -1.7573349981128201 Q 2.7533052193395307 -1.7631837281148803 2.740190388801812 -1.7841718490399876 Q 2.7270755582640938 -1.8051599699650949 2.7329242882661537 -1.8304935910517655 L 2.8629460552350308 -2.3936794752092885 Q 2.8687947852370907 -2.4190130962959593 2.889782906162198 -2.4321279268336777 Q 2.9107710270873053 -2.445242757371396 2.936104648173976 -2.439394027369336 M 4.088207356498006 -1.838601271334038 L 3.6460996273296984 -1.5080551235579032 Q 3.630496610135377 -1.495149858956443 3.6126835086110214 -1.4933628463423292 Q 3.594870407086666 -1.4915758337282154 3.580174896080822 -1.500122292426245 Q 3.5568349668362464 -1.513696079770174 3.553138216094745 -1.5331982343679411 Q 3.5494414653532433 -1.5527003889657083 3.5605015883742226 -1.5717181090909178 Q 3.565026184155532 -1.5794980855057763 3.5726468382730516 -1.5866343051507381 L 4.088527105442271 -1.9783900325439887 Q 4.105497297325056 -1.9916570061047323 4.125290648929452 -1.9928707739016027 Q 4.145084000533849 -1.9940845416984732 4.160502929458259 -1.9828037336235171 Q 4.176062882287976 -1.973754542060898 4.1841830354798155 -1.956885543509085 Q 4.192303188671655 -1.9400165449572722 4.188802357011558 -1.9200730202515524 L 4.106853587034635 -1.2898378267727453 Q 4.1046402689143315 -1.2760864187394443 4.099110207403841 -1.2665775586768395 Q 4.0855364200599125 -1.243237629432264 4.062364962308693 -1.2382043853806177 Q 4.039193504557472 -1.2331711413289717 4.021040226256137 -1.243728531485361 Q 4.00548027342642 -1.2527777230479804 3.9984759284907483 -1.26957620964714 Q 3.991471583555077 -1.2863746962462992 3.994107973391301 -1.306820953816609 L 4.060122146418145 -1.847993873463908 L 4.088207356498006 -1.838601271334038 M 3.734230733349743 -1.5979323072681404 L 3.839589313090613 -1.669692809461106 L 4.072988605536368 -1.5339549360218145 L 4.031598720762112 -1.4249922018491912 L 3.734230733349743 -1.5979323072681404 M 4.845966940899432 -1.4699586857586406 Q 4.884612581656378 -1.435166237576815 4.898354951059961 -1.3824272834425562 Q 4.912097320463544 -1.329688329308297 4.898783149000494 -1.2730514787756932 Q 4.885468977537444 -1.2164146282430894 4.843316588394078 -1.1695939480952502 Q 4.801833284792671 -1.123516453346583 4.746900730975986 -1.1043483931636375 Q 4.691968177159301 -1.0851803329806922 4.637746132467248 -1.092956570465042 Q 4.583524087775195 -1.1007328079493917 4.544878447018248 -1.1355252561312175 L 4.408132333570591 -1.2586369958515233 L 4.427607727317558 -1.2653234776170386 L 4.289107020132215 -1.1114840999884237 Q 4.271710796041302 -1.0921612796099505 4.248110832670281 -1.0898609037957705 Q 4.22451086929926 -1.0875605279815905 4.205188048920786 -1.1049567520725032 Q 4.186608413941484 -1.121683890621458 4.186426444539 -1.1453950037782998 Q 4.186244475136515 -1.1691061169351418 4.203640699227428 -1.188428937313615 L 4.590372142479259 -1.617990098035061 Q 4.607768366570172 -1.6373129184135342 4.632483108039951 -1.638609665914777 Q 4.65719784950973 -1.6399064134160197 4.676520669888204 -1.6225101893251068 L 4.845966940899432 -1.4699586857586406 M 4.621154198801482 -1.2202483916368312 Q 4.63527472138575 -1.2075357663396258 4.6593574272421785 -1.2073831929711312 Q 4.683440133098606 -1.2072306196026368 4.709420039208604 -1.218152820778026 Q 4.735399945318603 -1.229075021953415 4.754134340493432 -1.2498842131302323 Q 4.773537821210219 -1.271436589706222 4.78134673496911 -1.2980452511890215 Q 4.789155648727999 -1.3246539126718209 4.786149137443254 -1.348216826114235 Q 4.78314262615851 -1.3717797395566493 4.76902210357424 -1.3844923648538547 L 4.6307896193282385 -1.508942275658077 L 4.651751383873551 -1.5142905863396758 L 4.481134570674214 -1.3247783095508026 L 4.483664899954652 -1.3440292168990955 L 4.621154198801482 -1.2202483916368312 M 5.35727640517289 -0.8886116879902104 Q 5.3882167898863855 -0.8468182364244339 5.39117801983813 -0.7923987443542861 Q 5.394139249789875 -0.7379792522841382 5.369809725599938 -0.6851297087412536 Q 5.345480201410001 -0.6322801651983688 5.294845827397618 -0.5947946991031725 Q 5.245015173607654 -0.5579042404063126 5.187365235110875 -0.5500630293188795 Q 5.129715296614098 -0.5422218182314463 5.0781289932060165 -0.560643362702239 Q 5.026542689797935 -0.5790649071730316 4.995602305084439 -0.6208583587388081 L 4.886120943790533 -0.7687428796638632 L 4.9065379817774355 -0.7714158106097315 L 4.740167895736748 -0.6482492791540865 Q 4.719271169953861 -0.6327790867973387 4.6956859476881485 -0.6352259808851514 Q 4.672100725422437 -0.6376728749729639 4.656630533065689 -0.6585696007558521 Q 4.641755348107278 -0.6786626063163216 4.646300333626224 -0.7019347593459099 Q 4.650845319145168 -0.7252069123754983 4.671742044928057 -0.7406771047322459 L 5.136292333486111 -1.0845913809707137 Q 5.157189059268998 -1.1000615733274615 5.181666792632215 -1.0964090989060207 Q 5.206144525995431 -1.09275662448458 5.221614718352179 -1.0718598987016916 L 5.35727640517289 -0.8886116879902104 M 5.087226410440181 -0.6886892021491633 Q 5.098531551008573 -0.6734185179232066 5.122101207737329 -0.6684716722930518 Q 5.145670864466086 -0.6635248266628969 5.173305818917802 -0.6690528726514511 Q 5.200940773369519 -0.6745809186400052 5.223444939597244 -0.6912411257934259 Q 5.246752826047389 -0.7084963403451829 5.259705742827821 -0.7330161679726195 Q 5.272658659608253 -0.757535995600056 5.274406189885688 -0.7812255742778089 Q 5.276153720163123 -0.8049151529555619 5.26484857959473 -0.8201858371815187 L 5.154177203504151 -0.9696777985514113 L 5.175784256287726 -0.9707432890524421 L 4.970835599570938 -0.8190164024766475 L 4.9771500417479375 -0.8373774432966372 L 5.087226410440181 -0.6886892021491633" fill="#212245" fill-rule="nonzero"></path></g><g><path d=" M -0.9363068282952128 0.938342484944793 Q -0.949748299063381 1.0253098746008502 -1.0019697319138197 1.0653026483362031 Q -1.0541911647642581 1.1052954220715563 -1.1362172254625849 1.0926176712333975 Q -1.1797009202906135 1.0858969358493136 -1.213211874857781 1.0604800925363207 Q -1.2467228294249486 1.0350632492233278 -1.2625840333778893 0.9936546485567608 Q -1.2784452373308302 0.9522460478901937 -1.2718681056978152 0.8965976755916081 L -1.2438911755625206 0.8988979756165694 Q -1.2492372150725872 0.933487278320683 -1.2647714004701192 0.9685256727478697 Q -1.2803055858676509 1.0035640671750565 -1.3068588688407254 1.0313340719167168 Q -1.3334121518137998 1.059104076658377 -1.3719682280364969 1.0728764760974574 Q -1.410524304259194 1.0866488755365373 -1.4629023912111374 1.0785534442784361 Q -1.5192335413292655 1.0698470370763271 -1.5543796385697541 1.0451893435758777 Q -1.5895257358102428 1.0205316500754282 -1.6079385463525162 0.9858117939706809 Q -1.6263513568947894 0.9510919378659338 -1.630353371349177 0.9115162650313896 Q -1.6343553858035642 0.8719405921968455 -1.6283983703494898 0.8333982263265474 L -1.588226702030987 0.5734843231499219 Q -1.5856300542689545 0.5566838046936382 -1.5720143089313794 0.5471516759228809 Q -1.5583985635938042 0.5376195471521237 -1.5415980451375204 0.5402161949141562 L -0.9298615201704817 0.6347647222493391 Q -0.9130610017141979 0.6373613700113716 -0.9034525009504397 0.6504829824531738 Q -0.8938440001866815 0.663604594894976 -0.896440647948714 0.6804051133512597 L -0.9363068282952128 0.938342484944793 M -1.0125468979953323 0.9144165205520888 L -0.9797069410049212 0.7019393753696763 L -0.9637510845891143 0.716547956616264 L -1.2098292666840944 0.678514704101788 L -1.195301627547974 0.6696294522128058 L -1.2282943285243868 0.8830948631867643 Q -1.2350150639084707 0.9265785580147929 -1.211660924408467 0.9620621340495497 Q -1.1883067849084634 0.9975457100843065 -1.1329639005818815 1.0060993733004135 Q -1.083550611004576 1.013736572600509 -1.051943726143003 0.9892773242607246 Q -1.0203368412814295 0.96481807592094 -1.0125468979953323 0.9144165205520888 M -1.3082720557640866 0.8768049390558881 L -1.27497386681567 0.6613629964988373 L -1.2691252141768605 0.6693500649416735 L -1.5270625857703939 0.6294838845951747 L -1.5169462417584636 0.622952454136823 L -1.550855406650888 0.8423474598600582 Q -1.5598673018250007 0.9006551415612783 -1.5359472275536892 0.9422974283243146 Q -1.5120271532823777 0.9839397150873508 -1.449766408414973 0.9935625862054712 Q -1.401341384629214 1.001047041519565 -1.372097461433204 0.9853294413176934 Q -1.342853538237194 0.969611841115822 -1.3281594447626728 0.9400089085421388 Q -1.3134653512881516 0.9104059759684556 -1.3082720557640866 0.8768049390558881 M -0.967906614176197 1.3553109225670468 L -0.9510554620049146 1.7109118768268747 Q -0.9502507721540389 1.7278928212718665 -0.9606704257237094 1.7404000519600746 Q -0.97109007929338 1.7529072826482825 -0.9880710237383717 1.7537119724991583 Q -1.0050519681833636 1.7545166623500341 -1.0161082149411826 1.7430271276496987 Q -1.0271644616990017 1.731537592949363 -1.0279691515498774 1.7145566485043713 L -1.0432109240194083 1.3929175831345268 L -1.0258039673004231 1.4011028050486467 L -1.278520375805301 1.4130784834175636 L -1.2680060528414097 1.4025690108993547 L -1.2548470070447342 1.6802573965292202 Q -1.2540423171938584 1.697238340974212 -1.264461970763529 1.7097455716624201 Q -1.2748816243331995 1.722252802350628 -1.2918625687781913 1.7230574922015038 Q -1.308843513223183 1.7238621820523798 -1.319899759981002 1.7123726473520442 Q -1.330956006738821 1.7008831126517086 -1.331760696589697 1.6839021682067168 L -1.3447777382950414 1.4092104198318496 L -1.3354564836502734 1.4157765611528532 L -1.5941661666651483 1.4280362477044322 L -1.5874580212528138 1.4217116303146629 L -1.572358252874614 1.7403540584295085 Q -1.5715535630237383 1.7573350028745005 -1.5829720956784084 1.7698895682598188 Q -1.5943906283330784 1.782444133645137 -1.6093738146080712 1.7831541541017923 Q -1.626354759053063 1.783958843952668 -1.6379104453533817 1.7724929766008877 Q -1.6494661316537005 1.7610271092491072 -1.6502708215045765 1.7440461648041155 L -1.667121973675859 1.3884452105442875 Q -1.6679266635267347 1.3714642660992957 -1.6564844635235094 1.359409140256477 Q -1.6450422635202842 1.3473540144136584 -1.6280613190752924 1.3465493245627826 L -1.0097551654605914 1.3172491470514798 Q -0.9927742210155996 1.316444457200604 -0.9807427625213363 1.3273872176613295 Q -0.968711304027073 1.338329978122055 -0.967906614176197 1.3553109225670468 M -1.5655268473041044 2.273751584654275 Q -1.5827981305423935 2.201795328669803 -1.5744758904030125 2.1422072399350363 Q -1.5661536502636315 2.082619151200269 -1.5316158994681772 2.0208523011106694 Q -1.5264429966408357 2.0124118582112187 -1.5192280317584612 2.006052276326684 Q -1.512013066876087 1.9996926944421491 -1.502289248499807 1.997358737247786 Q -1.486731139097759 1.9936244057368044 -1.4718923153538912 2.001889350376572 Q -1.4570534916100233 2.01015429501634 -1.4530857643796056 2.026684786256016 Q -1.4498182243074969 2.0402981319828077 -1.457947071607605 2.053561685110515 Q -1.4857951483794518 2.100353614116588 -1.4946232798976582 2.1492649021173884 Q -1.5034514114158648 2.198176190118189 -1.4901478554079937 2.2536019548629844 Q -1.4798784437527948 2.296386755718616 -1.4579795499860129 2.3276387708823014 Q -1.436080656219231 2.3588907860459862 -1.4068698001703681 2.373475911650266 Q -1.377658944121505 2.388061037254545 -1.3455703434797812 2.3803589785131463 Q -1.306908465694098 2.3700507678980647 -1.2868779416030875 2.34210388784609 Q -1.2668474175120774 2.3141570077941154 -1.2590498662713228 2.2716635001176737 Q -1.2512523150305683 2.229169992441232 -1.2517203103897219 2.1758053882513404 Q -1.2517603132698853 2.128508470806653 -1.2451879390661365 2.0873374385469936 Q -1.2386155648623876 2.0461664062873344 -1.2222996718223471 2.0134549154269967 Q -1.205983778782307 1.980743424566659 -1.1770266208730322 1.9578527494823077 Q -1.1480694629637576 1.9349620743979565 -1.1043122802704979 1.9244592670233214 Q -1.0488865155257021 1.9111557110154502 -1.0000722249246086 1.9302911502085274 Q -0.9512579343235145 1.9494265894016047 -0.9160369880091308 1.9954780273891346 Q -0.880816041694747 2.0415294653766645 -0.8647117370536398 2.108623812172996 Q -0.8504745981680232 2.1679391042683034 -0.8572021682113027 2.225601828807756 Q -0.8639297382545822 2.2832645533472085 -0.8902610438301628 2.323522004169204 Q -0.9040683843563679 2.347404159591054 -0.9215712574336719 2.351605282540908 Q -0.9361569849980917 2.3551062183324536 -0.9512292044613959 2.3458688918550576 Q -0.9663014239247 2.336631565377662 -0.9700357554356813 2.321073455975614 Q -0.972603108349481 2.310377255761706 -0.9669246151233842 2.2997586534675634 Q -0.9524170874388701 2.2787936435585974 -0.943899648579795 2.2500107799887243 Q -0.9353822097207197 2.2212279164188513 -0.9338660404845943 2.1889835179774564 Q -0.9323498712484689 2.156739119536062 -0.9395851385509953 2.126595282569594 Q -0.9503213416450669 2.0818657180387063 -0.9716173466333166 2.050983195934117 Q -0.9929133516215662 2.0201006738295275 -1.0212879231724608 2.0068574231219722 Q -1.0496624947233553 1.9936141724144165 -1.082723477202707 2.001549626875252 Q -1.1196739870325707 2.010418664213833 -1.138362636226857 2.037529259767839 Q -1.1570512854211437 2.064639855321845 -1.163487562285233 2.1042356169653442 Q -1.1699238391493223 2.143831378608843 -1.171089613826223 2.190389309935339 Q -1.1713218056253787 2.2408367686123465 -1.1767078017520043 2.2848082485251715 Q -1.1820937978786303 2.3287797284379965 -1.197456708560984 2.3633192851138722 Q -1.2128196192433378 2.3978588417897475 -1.243488145108432 2.4221886901505996 Q -1.2741566709735261 2.4465185385114516 -1.324720526530182 2.458655115922141 Q -1.3782015275997217 2.4714918804911394 -1.427249213920252 2.4513840594604344 Q -1.476296900240782 2.431276238429729 -1.512606926252512 2.3849720052428216 Q -1.5489169522642419 2.3386677720559144 -1.5655268473041044 2.273751584654275 M -1.3109305308897419 2.97824357477987 Q -1.3184384727051948 2.9618841490657513 -1.3125374834394172 2.945972570712703 Q -1.30663649417364 2.9300609923596554 -1.2911859254436386 2.9229701584228387 L -0.729512309258889 2.6651974894256263 L -0.6940581395748063 2.7424503330756327 L -1.255731755759556 3.000223002072845 Q -1.2711823244895573 3.0073138360096614 -1.2870939028426052 3.001412846743884 Q -1.3030054811956528 2.9955118574781068 -1.3109305308897419 2.97824357477987 M -0.8405728006438996 2.5071134381955296 Q -0.8476636345807161 2.4916628694655283 -0.8429173768517972 2.476831381422494 Q -0.8381711191228782 2.461999893379459 -0.822720550392877 2.4549090594426426 Q -0.8072699816628758 2.4478182255058263 -0.7929302427253228 2.453890448097499 Q -0.7785905037877696 2.4599626706891717 -0.7714996698509531 2.475413239419173 L -0.5775445062850895 2.898031737033912 Q -0.5704536723482729 2.913482305763913 -0.5749913761378738 2.9287682222990066 Q -0.5795290799274746 2.9440541388341 -0.5949796486574757 2.9511449727709165 Q -0.6113390743715947 2.9586529145863696 -0.625432938756407 2.9519177095633196 Q -0.6395268031412193 2.9451825045402695 -0.6466176370780359 2.9297319358102683 L -0.8405728006438996 2.5071134381955296 M -0.22576586629961526 3.556504583190301 L -0.8086290432420755 3.763094798264835 Q -0.8202364014330158 3.7681216497473446 -0.8321225436334376 3.765343228686499 Q -0.8440086858338595 3.7625648076256533 -0.8513478618094386 3.7543711212758177 Q -0.8640246203127115 3.74021839030792 -0.8625805948837894 3.7268424869529824 Q -0.8611365694548672 3.713466583598045 -0.8507082413732582 3.7041258141745805 Q -0.8461612751484154 3.698710548885591 -0.838200637082468 3.69560760808967 L -0.19612163907597469 3.468197053543542 Q -0.182357321914557 3.462580687006367 -0.1705100210947832 3.466065147263822 Q -0.15866272027500927 3.4695496075212775 -0.15073402924476453 3.4799002528415905 Q -0.14206045763726205 3.489583700345942 -0.14026904461046819 3.502075331118881 Q -0.13847763158367443 3.5145669618918194 -0.14474740724692103 3.5255528579923916 L -0.43741585093764984 4.134063484085023 Q -0.44137330210782694 4.141635708344491 -0.4473323467258892 4.146973290872184 Q -0.4607401971165293 4.158982851559496 -0.4765678169692768 4.1570498617 Q -0.49239543682202436 4.155116871840505 -0.5024034040614505 4.143943663181639 Q -0.5104097778529912 4.135005096254545 -0.5118675919718042 4.122885905770235 Q -0.513325406090617 4.110766715285925 -0.5069779476660745 4.098368740792134 L -0.2396993376735157 3.539450012674668 L -0.22576586629961526 3.556504583190301 M -0.65385361835097 3.691585583125961 L -0.5730682075821638 3.6648700931077105 L -0.3749104562415281 3.886099624553272 L -0.42300317402820914 3.949314262857154 L -0.65385361835097 3.691585583125961 M 0.37465475157554695 3.953416179070428 Q 0.41888445582576006 3.9861076651476726 0.4382196715152834 4.033973617914119 Q 0.4575548872048065 4.081839570680564 0.4501250256184419 4.134792825130196 Q 0.4426951640320773 4.187746079579828 0.4070317246750832 4.235996666034606 Q 0.3719626759740391 4.283443076048471 0.3229254252451632 4.3068865834855705 Q 0.2738881745162872 4.330330090922671 0.2218614727495195 4.3266938424064385 Q 0.16983477098275168 4.323057593890206 0.12560506673253857 4.290366107812961 L -0.037642750772793776 4.169704804655131 L -0.02488082781500417 4.164215421955825 L -0.17466727311437913 4.366867885065893 Q -0.18477191426552744 4.380538884561413 -0.2007505429869689 4.38365070463692 Q -0.21672917170841036 4.3867625247124264 -0.2304001712039308 4.376657883561278 Q -0.24487534714036419 4.36595885175418 -0.24618651189855154 4.35006763257575 Q -0.24749767665673889 4.334176413397321 -0.2373930355055906 4.320505413901801 L 0.13053478052739798 3.822720196976674 Q 0.14063942167854626 3.8090491974811536 0.15672294329246927 3.8066366609540783 Q 0.1728064649063923 3.804224124427003 0.1864774644019127 3.8143287655781513 L 0.37465475157554695 3.953416179070428 M 0.17137314724068098 4.228444521862663 Q 0.1979109697908088 4.24805941350901 0.22871441262073122 4.248444003971324 Q 0.25951785545065365 4.248828594433638 0.290006612398795 4.232814984604584 Q 0.32049536934693645 4.216801374775531 0.34189343296113295 4.187851022902664 Q 0.36448027788722914 4.157292318147971 0.3696549602960817 4.125055341522247 Q 0.37482964270493435 4.092818364896522 0.3651270681612335 4.063885510781797 Q 0.3554244936175326 4.034952656667073 0.32888667106740455 4.0153377650207265 L 0.1656388535620723 3.894676461862897 L 0.17780638586391195 3.8899912556045035 L 0.007810658262240366 4.119985717705612 L 0.00812532973534863 4.107783218704833 L 0.17137314724068098 4.228444521862663 M 0.9167194378705684 4.262675623652142 Q 0.9664863424482315 4.286090473827998 0.9948053032967602 4.329253379852263 Q 1.0231242641452887 4.372416285876527 1.026188957026474 4.425800343960791 Q 1.0292536499076592 4.479184402045054 1.003710176988544 4.533475570675232 Q 0.9785924286180805 4.586861886494907 0.9350839036149625 4.619438845408426 Q 0.8915753786118445 4.652015804321944 0.8398415675874603 4.658619802875342 Q 0.7881077565630759 4.66522380142874 0.7383408519854128 4.641808951252885 L 0.5546557314533107 4.555386867876544 L 0.5660983957106545 4.547508705991072 L 0.4588158094503699 4.77553161423782 Q 0.45157849212328727 4.79091411201637 0.4365164166239316 4.797089375707235 Q 0.42145434112457586 4.803264639398099 0.4060718433460254 4.796027322071017 Q 0.3897844927569721 4.788364280195282 0.385392232830514 4.773035938708401 Q 0.3809999729040559 4.75770759722152 0.3882372902311386 4.7423250994429695 L 0.6517607858466788 4.182221209741634 Q 0.6589981031737615 4.166838711963083 0.6742997428040427 4.161328736951797 Q 0.6896013824343239 4.155818761940509 0.7049838802128744 4.163056079267593 L 0.9167194378705684 4.262675623652142 M 0.7711216422316108 4.5721352848441565 Q 0.8009817849782088 4.58618419494967 0.8312661471165175 4.580539958076915 Q 0.8615505092548262 4.574895721204159 0.8883207624205804 4.553231152308346 Q 0.9150910155863344 4.531566583412533 0.9304170993378037 4.498991882234426 Q 0.9465946321865768 4.464607475435313 0.945367851939938 4.4319808757009485 Q 0.9441410716932992 4.399354275966584 0.9289699310321338 4.372876238066484 Q 0.9137987903709683 4.346398200166384 0.8839386476243704 4.33234929006087 L 0.7002535270922683 4.24592720668453 L 0.7112704668009602 4.23895389760956 L 0.5895132458865102 4.497741801413409 L 0.5874365216995088 4.485713201467816 L 0.7711216422316108 4.5721352848441565 M 1.465398552579029 5.16855109811083 Q 1.4476153719880236 5.165765691844648 1.4381108330101136 5.152130673002805 Q 1.4286062940322037 5.138495654160963 1.4312369555058202 5.121700428047236 L 1.52702398210397 4.510156606612103 Q 1.5296546435775862 4.493361380498376 1.5427956851807894 4.483779469124183 Q 1.5559367267839925 4.47419755774999 1.57273195289772 4.476828219223607 L 1.9195039744223266 4.531143641414157 Q 1.936299200536054 4.533774302887773 1.9464524615451686 4.54649873964862 Q 1.9566057225542832 4.559223176409467 1.9539750610806668 4.576018402523195 Q 1.951499144399616 4.591825674159644 1.9379414979540566 4.600836235898915 Q 1.9243838515084974 4.609846797638186 1.90758862539477 4.607216136164569 L 1.5963829650521744 4.558471526506383 L 1.603548650256368 4.5514963594435525 L 1.565636176077779 4.793545206376683 L 1.562398596409611 4.7819039831637955 L 1.8281583507974148 4.82353033236396 Q 1.8449535769111423 4.8261609938375765 1.855029465523974 4.839379407837063 Q 1.865105354136806 4.852597821836548 1.8624746926631894 4.869393047950276 Q 1.8601535207747044 4.884212365109447 1.8465185019328623 4.893716904087357 Q 1.83288348309102 4.903221443065267 1.8160882569772925 4.900590781591651 L 1.5483525936349325 4.858654942806354 L 1.5566609781089702 4.850846566058811 L 1.5122492226426227 5.134389501037621 Q 1.5096185611690065 5.151184727151348 1.4959061699308813 5.161183243367897 Q 1.4821937786927564 5.171181759584446 1.465398552579029 5.16855109811083 M 2.7626061359435146 4.8613985746805 Q 2.7672726767779534 4.938257038083306 2.7462882201491947 5.005151750729342 Q 2.7253037635204365 5.072046463375378 2.6833560966082444 5.123683593820668 Q 2.6414084296960523 5.175320724265957 2.5811587137422327 5.206028568988177 Q 2.5209089977884123 5.236736413710398 2.4480431818351027 5.241160536839152 Q 2.3741792040194185 5.2456452643943265 2.3111559299700364 5.222422066335135 Q 2.248132655920654 5.199198868275943 2.2002457552191763 5.153016136208569 Q 2.1523588545176984 5.106833404141195 2.1234352180277516 5.042968912816224 Q 2.094511581537805 4.979104421491251 2.089845040703366 4.902245958088445 Q 2.085117895442506 4.824389332823265 2.1061023520712645 4.757494620177228 Q 2.127086808700023 4.690599907531192 2.169064777825426 4.63946185801709 Q 2.2110427469508283 4.588323808502988 2.270793381973461 4.557646265993979 Q 2.3305440169960945 4.526968723484969 2.4044079948117782 4.522483995929794 Q 2.4772738107650882 4.51805987280104 2.5407961657456575 4.541252768647022 Q 2.6043185207262267 4.564445664493003 2.652175119214494 4.610129315629189 Q 2.700031717702761 4.655812966765375 2.728955354192708 4.719677458090348 Q 2.7578789906826544 4.783541949415319 2.7626061359435146 4.8613985746805 M 2.6767642157793414 4.866610555352731 Q 2.671794652812796 4.784761282638054 2.6355363134210967 4.723846729167176 Q 2.5992779740293974 4.6629321756963 2.5411991503852813 4.6303921965304236 Q 2.483120326741165 4.597852217364547 2.409256348925481 4.602336944919722 Q 2.335392371109797 4.606821672474897 2.2811779852368264 4.646179649613168 Q 2.2269635993638555 4.685537626751438 2.198840498632425 4.750361165726488 Q 2.170717397900994 4.815184704701538 2.1756869608675395 4.897033977416215 Q 2.180595919407663 4.9778850882685175 2.2163854800813865 5.039329024883792 Q 2.2521750407551093 5.100772961499067 2.3107529453304125 5.133282638451733 Q 2.3693308499057157 5.165792315404397 2.4431948277214 5.1613075878492225 Q 2.5170588055370837 5.156822860294048 2.5707741104788675 5.117495185368988 Q 2.6244894154206513 5.078167510443929 2.6530812948700584 5.01281458832448 Q 2.6816731743194655 4.947461666205033 2.6767642157793414 4.866610555352731 M 3.1466118527161635 5.129602631358728 Q 3.1284359282723018 5.135137590311696 3.1120256920918945 5.127590793076892 Q 3.095615455911487 5.120043995842088 3.0906631242167264 5.103781326602843 L 2.910339987801627 4.511628840773879 Q 2.9053876561068663 4.495366171534634 2.9130387667987234 4.481014847373396 Q 2.9206898774905805 4.466663523212157 2.9369525467298248 4.461711191517397 L 3.200981764966972 4.381308629884816 Q 3.2545529106962485 4.364995066655017 3.305029650342272 4.376279957204224 Q 3.355506389988295 4.387564847753431 3.3938204779445784 4.422414964884915 Q 3.4321345659008617 4.4572650820163995 3.449030756388868 4.5127494829502925 Q 3.4612659288112173 4.55292784224725 3.456592834636561 4.592505767797167 Q 3.4519197404619044 4.632083693347084 3.4328539787685104 4.665591106423159 Q 3.4137882170751164 4.699098519499234 3.38342801419946 4.722978596579281 L 3.3577211888830165 4.714081454782623 Q 3.392577036394334 4.711829812211571 3.4243779110532864 4.723575210073099 Q 3.456178785712239 4.735320607934627 3.481617834268245 4.760502045712585 Q 3.507056882824252 4.785683483490542 3.5202486828489095 4.825570529158396 Q 3.532940542330358 4.860383123185604 3.5422193249775615 4.88055498954908 Q 3.5514981076247656 4.9007268559125565 3.5608792936024107 4.910936819166791 Q 3.5702604795800563 4.921146782421026 3.582822578609175 4.924638725717046 Q 3.5988371877034258 4.9291699833303735 3.607511716350367 4.942208486034035 Q 3.6161862449973086 4.955246988737697 3.6106983597816735 4.9715529114610515 Q 3.6075804168297543 4.981910441656449 3.5980771109062233 4.988463088184668 Q 3.5885738049826923 4.9950157347128865 3.5777595877281954 4.997263557030717 Q 3.566945370473698 4.999511379348548 3.5578357815097124 4.997058750369834 Q 3.5399079172108445 4.993110120014714 3.5204605146669046 4.980738841410869 Q 3.5010131121229646 4.968367562807023 3.4818334863394624 4.939711988221878 Q 3.4626538605559603 4.911056413636733 3.4460489836970574 4.856528640305148 Q 3.436726947565744 4.825916557031276 3.421043085331484 4.808740513673833 Q 3.4053592230972245 4.7915644703163895 3.385309476679634 4.78408064318114 Q 3.365259730262043 4.776596816045889 3.3437139824680466 4.777931264245522 Q 3.3221682346740504 4.779265712445154 3.3011224274232633 4.785674612285432 L 3.0877944721084667 4.850637551575525 L 3.0940303580123047 4.829922491184728 L 3.1700632152083323 5.079602295387248 Q 3.1750155469030927 5.095864964626493 3.1689450344292505 5.11025763214523 Q 3.162874521955408 5.124650299663968 3.1466118527161635 5.129602631358728 M 3.066819890813011 4.781760364209312 L 3.3011936533785944 4.710388525078941 Q 3.328353226587334 4.700027174630321 3.347503585122337 4.6753793802466275 Q 3.3666539436573397 4.650731585862934 3.372970606149565 4.614834513907699 Q 3.3792872686417894 4.578937441952464 3.3673434098485435 4.539715710257815 Q 3.3519037875060556 4.489014447335465 3.309660785810096 4.465291487829636 Q 3.2674177841141367 4.441568528323808 3.218629776396403 4.456425523408089 L 2.9928656622515963 4.525175539876527 L 2.994983724117097 4.504669106399837 L 3.083543067364577 4.795483897501622 L 3.066819890813011 4.781760364209312 M 4.270011458220294 3.8565555875948614 Q 4.289110102527358 3.8542660929710983 4.301420222761498 3.867634374080539 Q 4.313730342995638 3.8810026551899792 4.312414883782769 3.9001669336021525 Q 4.312425359948505 3.9159783184323924 4.301489706394128 3.9247766979046954 Q 4.2905540528397506 3.9335750773769984 4.275060362369318 3.9357989378956533 Q 4.236545379395382 3.938164542790261 4.198764236298724 3.9503643471456553 Q 4.160983093202067 3.962564151501049 4.126466868695415 3.9864938453103393 Q 4.077979791412261 4.020109367566247 4.049390832418559 4.064874548495809 Q 4.0208018734248565 4.109639729425371 4.012297458870196 4.1605580457082425 Q 4.003793044315536 4.211476361991114 4.016414232271269 4.2647840126107575 Q 4.029035420227002 4.318091663230402 4.06436020632643 4.369044185121174 Q 4.101964010883887 4.42328396648877 4.148849363091573 4.454053492782837 Q 4.195734715299258 4.484823019076903 4.24652700145478 4.49402321837342 Q 4.297319287610301 4.503223417669937 4.348002646442423 4.491204801381265 Q 4.398686005274546 4.479186185092594 4.445529452819288 4.4467101720657 Q 4.479223862456734 4.423350232870916 4.504185526726986 4.3926595939583875 Q 4.529147190997238 4.3619689550458585 4.5451240496455965 4.325339185899297 Q 4.552641175512933 4.311609917211759 4.5652860929108305 4.305276982347074 Q 4.577931010308728 4.298944047482389 4.592986214374871 4.303108279767792 Q 4.611964066637453 4.309420262301005 4.6194693277837064 4.32551128635563 Q 4.62697458892996 4.341602310410257 4.618383587938719 4.357292903196015 Q 4.606384535426173 4.383863991596778 4.587208392292917 4.412368825126074 Q 4.568032249159661 4.44087365865537 4.543667918473603 4.466282896940301 Q 4.519303587787545 4.4916921352252315 4.490540067365335 4.511633546732973 Q 4.431369396782502 4.552655878977472 4.364529379790645 4.568574802575764 Q 4.297689362798788 4.584493726174057 4.2306419673258695 4.573786403432214 Q 4.163594571852951 4.563079080690371 4.1022841662158696 4.524666398401619 Q 4.0409737605787885 4.486253716112866 3.9936841275747144 4.418043081968769 Q 3.9492432676431752 4.3539415221707 3.9343982191687874 4.285140181080624 Q 3.9195531706944 4.216338839990547 3.932062970354559 4.149258627465073 Q 3.944572770014718 4.0821784149396 3.9821964544868185 4.023240240835342 Q 4.019820138958918 3.964302066731084 4.081456254149368 3.9215704706430654 Q 4.124190627348081 3.891943230688706 4.172847027976875 3.8752457854394975 Q 4.2215034286056685 3.858548340190289 4.270011458220294 3.8565555875948614 M 5.0811463132689765 3.8584234448932504 Q 5.092975468450629 3.846213977759572 5.10958480575752 3.8455976059351524 Q 5.126194143064411 3.8449812341107332 5.138403610198089 3.856810389292386 Q 5.1506130773317675 3.8686395444740396 5.150163328878275 3.8849121510977054 Q 5.149713580424782 3.9011847577213716 5.137884425243128 3.91339422485505 L 4.897126325663601 4.161892791222855 Q 4.885297170481948 4.174102258356533 4.86867664752941 4.17401161187756 Q 4.852056124576872 4.173920965398588 4.839846657443194 4.162091810216935 L 4.395278412987496 3.7313713950732135 Q 4.383068945853818 3.7195422398915605 4.383159592332791 3.7029217169390223 Q 4.383250238811764 3.686301193986484 4.3957752266511605 3.673373522903766 Q 4.4076043818328134 3.6611640557700875 4.424213719139704 3.6605476839456683 Q 4.440823056446595 3.659931312121249 4.453032523580273 3.671760467302902 L 4.883236689055172 4.088564229291737 L 4.856392364817568 4.090403320433137 L 5.0811463132689765 3.8584234448932504 M 5.323811135443509 3.6051409443328963 Q 5.337492051468319 3.6152321551979067 5.339729160673324 3.632414859944392 Q 5.341966269878329 3.649597564690877 5.331875059013318 3.663278480715687 Q 5.320596646870071 3.6785689162728272 5.304409922645787 3.680298066031226 Q 5.288223198421503 3.682027215789625 5.274542282396693 3.6719360049246146 L 4.7772007469065505 3.3050908099495304 Q 4.762715071115576 3.2944059984454017 4.7605835414740945 3.277922473901558 Q 4.758452011832612 3.261438949357715 4.7691368233367415 3.24695327356674 Q 4.7792280342017515 3.23327235754193 4.7956059791820715 3.230441647697807 Q 4.811983924162391 3.2276109378536835 4.826469599953366 3.238295749357812 L 5.323811135443509 3.6051409443328963 M 4.9373629306126805 3.016808462559633 Q 4.941333826008915 3.0087318302322226 4.950453555264192 3.001515145514818 Q 4.959573284519471 2.9942984607974132 4.969399776852436 2.9924437240424586 L 5.446179426107267 2.9315572226120072 L 5.42983965152998 2.962525137730133 L 5.189122655444031 2.545536735259084 Q 5.177807724991835 2.525487487171887 5.187970551174982 2.507083222340844 Q 5.195927324360221 2.493165975469474 5.211093291066478 2.4872504489616567 Q 5.226259257772735 2.4813349224538395 5.242412522427556 2.4892767132463067 L 5.797905345835003 2.762386074387265 Q 5.81316120689789 2.769886654580151 5.818635522806126 2.785950024878343 Q 5.824109838714361 2.802013395176535 5.816168047921894 2.8181666598313555 Q 5.8082262571294265 2.8343199244861763 5.7921628868312345 2.8397942403944123 Q 5.776099516533042 2.845268556302648 5.760843655470157 2.8377679761097623 L 5.27355350504973 2.598190620536999 L 5.2890707879989405 2.5779615837365446 L 5.507112976002183 2.9481434366828476 Q 5.5107475375482355 2.956616332431525 5.5114842654114655 2.9664503159608757 Q 5.512220993274695 2.9762842994902265 5.508250097878461 2.984360931817637 Q 5.504279202482228 2.9924375641450474 5.495821289126321 2.99830814347455 Q 5.487363375770415 3.0041787228040526 5.478434287029385 3.006474670158589 L 5.053464327822411 3.0571751018295603 L 5.039397257023326 3.026858150809817 L 5.545532882874377 3.2757009289737917 Q 5.560788743937263 3.2832015091666773 5.56670427044508 3.298367475872935 Q 5.572619796952897 3.3135334425791925 5.565119216760012 3.328789303642079 Q 5.557618636567126 3.344045164704965 5.542217082168306 3.348173375225299 Q 5.526815527769486 3.352301585745633 5.5115596667066 3.344801005552747 L 4.956066843299152 3.071691644411789 Q 4.941708385828201 3.064632274818485 4.935564762824207 3.048797001016469 Q 4.929421139820214 3.0329617272144533 4.9373629306126805 3.016808462559633 M 5.41736411558831 2.0630146647512664 L 5.922349277963373 2.419944609952046 Q 5.93315130128924 2.4265261213337426 5.937738500322312 2.437837956066932 Q 5.942325699355384 2.4491497908001207 5.9398665088800975 2.4598713756739286 Q 5.935618816240967 2.4783904768195963 5.923859855966817 2.4849270549206333 Q 5.912100895692666 2.49146363302167 5.898455242216911 2.488333754234942 Q 5.891408852708553 2.4877435043755605 5.884282024748134 2.4830309336097685 L 5.328130375893619 2.0897417989055356 Q 5.3156025362702675 2.0817384724488948 5.311614463389427 2.070051074333955 Q 5.307626390508586 2.0583636762190145 5.311507396058817 2.0459162750477224 Q 5.314413712075064 2.03324531110595 5.323583947902987 2.0245760103924972 Q 5.332754183730911 2.015906709679045 5.345344709220623 2.014690704788882 L 6.0112301732097 1.9027239738012718 Q 6.019698377793002 1.9015884073631688 6.027495894064862 1.9033769095270134 Q 6.045040305676547 1.9074010393956637 6.052591792537597 1.9214447228934999 Q 6.0601432793986465 1.935488406391336 6.056789837841438 1.9501087494010738 Q 6.054107084595671 1.9618050238088638 6.045048630152988 1.969986979755325 Q 6.035990175710305 1.978168935701786 6.022201397916129 1.9801360673554513 L 5.411471045103754 2.084234271728401 L 5.41736411558831 2.0630146647512664 M 5.774653022448251 2.3347694016645866 L 5.706228372993955 2.284192061411696 L 5.772626515826685 1.9947092698188893 L 5.85200574103453 1.9975268229066365 L 5.774653022448251 2.3347694016645866 M 6.087525453883647 1.4693253727716988 Q 6.08702845289644 1.4873185100750907 6.07470169403604 1.4989826009525473 Q 6.062374935175641 1.5106466918300039 6.045381416611327 1.510177302008753 L 5.427617035861536 1.4931136014479787 L 5.429963984967792 1.4081460086264057 L 6.047728365717582 1.4252097091871798 Q 6.064721884281897 1.425679099008431 6.076385975159353 1.4380058578688302 Q 6.08805006603681 1.4503326167292294 6.087525453883647 1.4693253727716988 M 5.457357570197614 1.6840075526811298 Q 5.456888180376362 1.7010010712454444 5.446074655207557 1.7122067695022962 Q 5.435261130038751 1.7234124677591482 5.418267611474437 1.7229430779378971 Q 5.401274092910122 1.722473688116646 5.391095624558304 1.7106881553747193 Q 5.380917156206484 1.6989026226327926 5.381386546027736 1.681909104068478 L 5.3942257381972505 1.2170863903975189 Q 5.394695128018501 1.2000928718332045 5.405522458770285 1.1883873642068137 Q 5.4163497895220685 1.1766818565804233 5.433343308086383 1.1771512464016745 Q 5.451336445389774 1.1776482473888814 5.461001298789077 1.1899197839173687 Q 5.470666152188379 1.202191320445856 5.470196762367127 1.219184839010171 L 5.457357570197614 1.6840075526811298 M 5.371127517608265 0.9903134877031495 L 5.312144095298164 0.6392337875030549 Q 5.309327471199086 0.6224687456395673 5.318187234217287 0.6088120769659374 Q 5.32704699723549 0.5951554082923075 5.343812039098977 0.5923387841932297 Q 5.360577080962464 0.5895221600941518 5.372920165006909 0.5996166277013009 Q 5.385263249051354 0.6097110953084499 5.388079873150431 0.6264761371719376 L 5.441430047262377 0.9440257536450569 L 5.4231738514640835 0.9379667673458177 L 5.672677121550105 0.896048773400718 L 5.663485990990836 0.9077330842080552 L 5.617425902782386 0.6335753407933746 Q 5.614609278683308 0.6168102989298869 5.62346904170151 0.603153630256257 Q 5.6323288047197115 0.5894969615826271 5.6490938465832 0.5866803374835493 Q 5.665858888446687 0.5838637133844715 5.678201972491132 0.5939581809916206 Q 5.6905450565355755 0.6040526485987696 5.693361680634654 0.6208176904622573 L 5.738924717531502 0.8920168970774989 L 5.728889320739446 0.8866047984802805 L 5.984309664424346 0.8436927019119767 L 5.978400514515526 0.8507695619045926 L 5.925547391715183 0.5361784822309124 Q 5.922730767616105 0.5194134403674247 5.932576709567453 0.5055910879232608 Q 5.942422651518801 0.49176873547909694 5.957215335515996 0.48928347892108703 Q 5.973980377379484 0.48646685482200924 5.986816550890501 0.4964784805438913 Q 5.999652724401519 0.5064901062657734 6.002469348500597 0.5232551481292611 L 6.061452770810698 0.8743348483293556 Q 6.0642693949097755 0.8910998901928433 6.054340611073161 0.904429153170434 Q 6.044411827236545 0.9177584161480248 6.027646785373058 0.9205750402471027 L 5.417202025755477 1.0231332942076432 Q 5.40043698389199 1.025949918306721 5.387190562799667 1.0165142239366791 Q 5.373944141707343 1.0070785295666371 5.371127517608265 0.9903134877031495" fill="#64c6c4" fill-rule="nonzero"></path></g><g clip-path="url(#SvgjsClipPath1002)"><g clip-path="url(#SvgjsClipPath1001a3e1a2bb-3525-4539-8ab5-a5c49678420c)"><path d=" M 3.190456823652649 1.0633539288591443 L 3.6782417339206095 1.286635753981802 L 4.01488202410554 1.462289848253296 L 4.231293639224424 1.7263291942233439 L 4.292919422958278 2.238159839504513 L 3.774424673973447 2.6538075447328455 L 0.651914227258123 2.6538075447328455 L 0.19848036700903307 2.3206023595498024 L 0.17443463199582374 1.8122068192705196 L 0.3668005121014983 1.4260151394333689 L 0.9061119973977642 1.2969410689874632 L 1.1087831925090998 0.8950337837666791 L 1.5278660027393194 0.7988508437138417 L 1.6618350978129142 0.39007334848928354 L 2.0156509130072795 0.22175320339681837 L 2.592748553324303 0.17366173337039972 L 2.919083528503572 0.4038137684968317 L 3.080533463592263 0.6820572736496823 L 3.190456823652649 1.0633539288591443 Z" fill="#64c6c4" transform="matrix(1,0,0,1,0,0)" fill-rule="nonzero"></path></g><g clip-path="url(#SvgjsClipPath1001a3e1a2bb-3525-4539-8ab5-a5c49678420c)"><path d=" M 3.8476954636636975 1.4657421287801926 C 3.687396288750638 1.438261288765096 3.436633623612884 1.57681624901621 3.436633623612884 1.828712498804587 C 3.3026645285392893 1.8115369737951519 3.196176273480791 1.8252773938027003 3.1675446732900623 1.8355827088083612 C 3.091010533848019 1.7825275120542161 3.047882790549327 1.7741286803246024 2.979575727586803 1.7741286803246024 C 2.878240130031135 1.7741286803246024 2.717356987267755 1.8509376281667966 2.685307457600149 2.051324478451877 C 2.356688137594625 1.9809048259131927 2.190085545003104 2.187011126026415 2.190085545003104 2.336438193608502 C 2.190085545003104 2.485865261190588 2.2645070948689865 2.5064758912019105 2.2645070948689865 2.5064758912019105 L 3.6711825931417312 2.616399251262296 L 4.167366335139305 2.4085753986481295 L 4.292936598483286 1.886439438361299 L 4.05076169585025 1.4622898482532958 L 3.8477126391887073 1.465724953255183 Z" fill="#a4cb6a" transform="matrix(1,0,0,1,0,0)" fill-rule="nonzero"></path></g><g clip-path="url(#SvgjsClipPath1001a3e1a2bb-3525-4539-8ab5-a5c49678420c)"><path d=" M 0.3860371001120657 2.0855896508456997 C 0.3809703202342823 2.0855896508456997 0.37586918930648006 2.0852976669205394 0.3707165318036495 2.084730874595228 C 0.29672437006300256 2.0763663939156336 0.2435317691087817 2.0095879526789497 0.2518962497883766 1.9355957909383026 C 0.2686767377225948 1.787182079331773 0.3314876326820994 1.661543113887754 0.4334930757131352 1.572299085938729 C 0.5279241122150101 1.489667635118336 0.6513130838827927 1.4441696693683421 0.7809024200789815 1.4441696693683421 L 1.0102987321049983 1.4441696693683421 C 1.0847546330209001 1.4441696693683421 1.1451266034290648 1.5045416397765068 1.1451266034290648 1.5789975406924084 C 1.1451266034290648 1.6534534416083102 1.0847546330209001 1.713825412016475 1.0102987321049983 1.713825412016475 L 0.7809024200789816 1.713825412016475 C 0.6736240908700492 1.713825412016475 0.5408916335971337 1.7798481301527438 0.5198344399355661 1.9659105925799556 C 0.512053927106292 2.0347500968177723 0.4537086686492405 2.0855896508457006 0.3860199245870563 2.0855896508457006 Z" fill="#dceac6" transform="matrix(1,0,0,1,0,0)" fill-rule="nonzero"></path></g><g clip-path="url(#SvgjsClipPath1001a3e1a2bb-3525-4539-8ab5-a5c49678420c)"><path d=" M 1.4918661023195432 1.9515175026220493 C 1.4903718316437222 1.9515175026220493 1.4888775609679015 1.9514831515720301 1.4873661147670711 1.9514316249970018 C 1.4219617155311417 1.9489927004456618 1.3709160552031003 1.893979493840441 1.37335497975444 1.8285750946045114 C 1.3778721428319216 1.707625047488069 1.436062821563888 1.574239920264795 1.5290167629149516 1.471787913583514 C 1.6357798263736008 1.354101216218864 1.7743691376747337 1.2892979603582646 1.9192618666543293 1.2892979603582646 L 2.1177422336633627 1.2892979603582646 C 2.1831981594743204 1.2892979603582646 2.236253356228466 1.34235315711241 2.236253356228466 1.4078090829233678 C 2.236253356228466 1.4732650087343253 2.1831981594743204 1.5263202054884706 2.1177422336633627 1.5263202054884706 L 1.9192618666543293 1.5263202054884706 C 1.815109482997114 1.5263202054884706 1.7400352631808726 1.5919307110245136 1.7045506285113796 1.6310393814709974 C 1.6488160498557622 1.692476234429747 1.6126615697109012 1.7715523515731864 1.610205469634552 1.837420489984371 C 1.6078180716582406 1.9013134430194703 1.5552609651293687 1.9515175026220493 1.491848926794534 1.9515175026220493 Z" fill="#dceac6" transform="matrix(1,0,0,1,0,0)" fill-rule="nonzero"></path></g><g clip-path="url(#SvgjsClipPath1001a3e1a2bb-3525-4539-8ab5-a5c49678420c)"><path d=" M 1.1530788715084335 1.333988676432815 C 1.1410731795268383 1.333988676432815 1.1288613812451298 1.332150895256805 1.1168213382135157 1.3282864021296825 C 1.0545085334792845 1.3082769154936904 1.0202090100354424 1.241532825307025 1.0402184966714345 1.179220020572794 C 1.0626669078587663 1.1092812827343739 1.1118747870107983 1.0392910183209252 1.1718345448187366 0.9919896224449408 C 1.2545862243141954 0.9267054518840776 1.3551660987694483 0.9042742162217551 1.455041776699314 0.928852392510257 C 1.5185912192342244 0.9444992957938524 1.5574422568055668 1.0086842327541117 1.5417953535219713 1.0722508508140316 C 1.5261484502383758 1.135800293348942 1.461946337753107 1.1746513309202844 1.3983968952181967 1.1590044276366889 C 1.3802080142332045 1.1545216156092264 1.3521432063677876 1.1516361274076412 1.3186337570743796 1.1780692603971619 C 1.2917025338595853 1.1993153848338334 1.2727407542491684 1.230351558525883 1.2658877197704037 1.251666385062592 C 1.2497427262615348 1.3019391467652088 1.2031798779609557 1.3339715009078055 1.1530788715084332 1.3339715009078055 Z" fill="#dceac6" transform="matrix(1,0,0,1,0,0)" fill-rule="nonzero"></path></g><g clip-path="url(#SvgjsClipPath1001a3e1a2bb-3525-4539-8ab5-a5c49678420c)"><path d=" M 1.75836154836594 0.9503905008720888 C 1.7513539341620905 0.9503905008720888 1.7442776178582031 0.9498408840717867 1.7371325994542781 0.9486729483711452 C 1.665029745464669 0.9370451179397576 1.616010797087741 0.8691502675774602 1.6276386275191286 0.7970474135878513 C 1.6545698507339228 0.630187188121188 1.7467852445095806 0.4834395024405734 1.8873153901367796 0.38380428186083976 C 1.964330444279087 0.32920328785584524 2.0518225686771503 0.2912282020599839 2.147352838779629 0.2709267314988315 C 2.2451331026583436 0.2501443462374149 2.34682938623921 0.24895923501176387 2.4496249034206796 0.26738857334688787 C 2.5215216511101755 0.2802873926289737 2.5693554882614524 0.349006668191724 2.5564566689793664 0.4209034158812198 C 2.5435578496972813 0.4928001635707157 2.4748213986095213 0.5406340007219927 2.402941826445035 0.5277351814399069 C 2.268457465621157 0.5036207443266598 2.1396582035754026 0.5291435744906805 2.04028061587081 0.5995975780793839 C 1.9580957287006626 0.6578569589113881 1.904284808846102 0.7429445098081301 1.8887581342375723 0.8391961519610052 C 1.878281063981817 0.9041711630716988 1.8221170972009637 0.9503905008720888 1.7583615483659403 0.9503905008720888 Z" fill="#dceac6" transform="matrix(1,0,0,1,0,0)" fill-rule="nonzero"></path></g><g clip-path="url(#SvgjsClipPath1001a3e1a2bb-3525-4539-8ab5-a5c49678420c)"><path d=" M 2.3004898197637536 0.25763287514152855 C 2.42224711655564 0.25763287514152855 2.5387315271696296 0.2893217187839365 2.6373877428238255 0.3492643010668654 C 2.790851058783129 0.44252740186809864 2.8967896970413256 0.5633228692594566 2.9522666428218014 0.7083186513891087 C 2.9979707148719084 0.8277572523047213 2.9938142378196257 0.9243352294327755 2.993178743394276 0.934966879413616 L 2.984608156414568 1.080787086743721 C 2.980228397537162 1.1553632163346887 3.041338915520732 1.2173496860937403 3.115966571686729 1.2140004587169004 L 3.26188983216689 1.2074737592133151 C 3.2662352399942773 1.2072848284382112 3.270597823346674 1.2071817752881548 3.2748401780240046 1.2071817752881548 C 3.3283591139534043 1.2071817752881548 3.3765364616048705 1.2221760086213918 3.4221546560299303 1.2530232515383375 C 3.4734064226580847 1.2876834610073775 3.500028486422709 1.328217700029645 3.5048376334253515 1.3359810373339094 L 3.574072174738386 1.447725003045295 L 3.705172957135405 1.4572402439005223 C 3.8714148637017285 1.4693146379821551 3.978796246060717 1.5572189749804448 4.039597604594118 1.6288409142697895 C 4.079857035216234 1.67626253882084 4.112782516659322 1.732374979026665 4.134801539721417 1.7910809235089147 C 4.156099190733117 1.8478632091901075 4.167349159614297 1.9073935788728094 4.167349159614297 1.9632483862034933 C 4.167349159614297 2.090965590173653 4.116045866411113 2.2206923305699178 4.026595732161975 2.3191767909740193 C 3.984361116163774 2.3656709371745603 3.934569269161422 2.403508618770346 3.882578954957861 2.4286020608091308 C 3.8312928372796873 2.453351992347727 3.778409395775636 2.465907301129625 3.7253713745465 2.465907301129625 L 0.6858702402017763 2.465907301129625 C 0.6505058342073493 2.465907301129625 0.6066051922832328 2.4548462630235486 0.5622579867088712 2.434768074287518 C 0.5094775983548766 2.4108769189993935 0.45817430515169366 2.375375108804891 0.41387862615236026 2.3321271368311334 C 0.3657012785008944 2.28508337383029 0.32776054375505204 2.2312552784507207 0.3010697778903897 2.172154296893254 C 0.27223207139954797 2.1082956949081737 0.25761569961651853 2.039730999070508 0.25761569961651853 1.9683838681813142 C 0.25761569961651853 1.8970367372921195 0.2726958105748027 1.8264453295033414 0.30242664436613503 1.7616764246927612 C 0.33031969698145786 1.7009094172093793 0.37018409052835705 1.6456901043040453 0.4208862403562098 1.5975471077025982 C 0.4686170243574303 1.552238072727708 0.5246264114131985 1.5150358855572716 0.5828686167201934 1.489993970093515 C 0.6359925155743765 1.467150521830966 0.6890992389035503 1.4550589522243236 0.7364693368795726 1.4550589522243236 C 0.7455380140845543 1.4550589522243236 0.7544177605144324 1.4555226913995782 0.7628681188190746 1.4564158187000689 L 0.8995681223691695 1.4710150149580887 C 0.9708465511583257 1.4786237725372686 1.0341040097680756 1.4252937673829722 1.0386383483705663 1.3537577057186745 L 1.0473463395503502 1.216559611943306 C 1.0492528228263975 1.1865539697518226 1.0591974518068605 1.1532849778085466 1.0760981684161448 1.1203594963654595 C 1.0946820864763538 1.0841706651705794 1.1212526236659501 1.0490638920512938 1.1529586428333674 1.0188349680346878 C 1.1844929067506906 0.9887606237431666 1.2203038763953629 0.9642511495547027 1.2565614096902806 0.9479344007957393 C 1.2890231519581132 0.9333180290127099 1.3212787879258325 0.9256062182834734 1.3498760370665424 0.9256062182834734 C 1.3563855610451183 0.9256062182834734 1.362809207398647 0.9260012553586904 1.3689752208770345 0.9267913295091246 L 1.4850130678407787 0.941648158642286 C 1.548322053025557 0.9497550064467396 1.6076634919331556 0.9092207674244723 1.6231729910166757 0.8473201752904678 L 1.6515984849072909 0.7338414815531292 C 1.6962892009818413 0.5553877767050973 1.8064358428673497 0.44644342157024963 1.89097377696379 0.3864664882373019 C 2.0080936820031288 0.3033712982416543 2.153518852258017 0.25759852409150946 2.3004554687137353 0.25759852409150946 M 2.3004898197637536 1.9650867754154364e-16 C 1.9029622934203754 1.9650867754154364e-16 1.5080969734534595 0.24658901256046167 1.4017117715450178 0.6712710439437569 C 1.3844847199605543 0.6690725767425493 1.367223317326072 0.6679905186669547 1.3499103881165613 0.6679905186669547 C 1.0796019755180697 0.6679905186669547 0.8074729572685782 0.929092849860389 0.790263081209124 1.2002772142343616 C 0.7725722904494057 1.1983879064833238 0.7546410423395553 1.1974604281328143 0.7364521613545635 1.1974604281328143 C 0.4038996461218787 1.1974947791828332 0 1.509179031529054 0 1.9684010437063235 C 0 2.4276230558835934 0.39503707521701015 2.723557351796162 0.6858702402017768 2.723557351796162 L 3.725371374546501 2.723557351796162 C 4.104383684929708 2.723557351796162 4.424982034755826 2.360586981771768 4.424982034755826 1.9632483862034933 C 4.424982034755826 1.6128676760110146 4.154759499782381 1.2315710208015527 3.7238427528206612 1.2002772142343616 C 3.6655146698886187 1.1061381616576473 3.5122231091794096 0.949531724621617 3.274840178024005 0.949531724621617 C 3.26678485679458 0.949531724621617 3.2586093068900888 0.9497206553967207 3.25036505488556 0.9500813414219189 C 3.2555177123883903 0.8624861638737993 3.251636043736258 0.42107517113131404 2.771167907122317 0.12909124597091529 C 2.626945023618089 0.041444541847767385 2.4635199031533124 1.9650867754154364e-16 2.3004898197637536 1.9650867754154364e-16 L 2.3004898197637536 1.9650867754154364e-16 Z" fill="#212245" transform="matrix(1,0,0,1,0,0)" fill-rule="nonzero"></path></g></g></g><defs><clipPath id="SvgjsClipPath1002"><path d=" M 0 0 h 4.424982034755825 v 2.7235573517961624 h -4.424982034755825 Z"></path></clipPath><clipPath id="SvgjsClipPath1001a3e1a2bb-3525-4539-8ab5-a5c49678420c"><path d=" M 0 1.9650867754154364e-16 L 4.424982034755825 1.9650867754154364e-16 L 4.424982034755825 2.723557351796162 L 0 2.723557351796162 Z"></path></clipPath></defs></svg>